<?xml version="1.0" encoding="utf-8"?>
<!-- Generator: Adobe Illustrator 16.0.3, SVG Export Plug-In . SVG Version: 6.00 Build 0)  -->
<!DOCTYPE svg PUBLIC "-//W3C//DTD SVG 1.1//EN" "http://www.w3.org/Graphics/SVG/1.1/DTD/svg11.dtd">
<svg version="1.1" id="圖層_1" xmlns="http://www.w3.org/2000/svg" xmlns:xlink="http://www.w3.org/1999/xlink" x="0px" y="0px"
	 width="682px" height="961.44px" viewBox="58.5 0 682 961.44" enable-background="new 58.5 0 682 961.44" xml:space="preserve">
<g>
	<g>
		<path fill="#FFFFFF" d="M700.533,50.531c-7.039-6.943-16.484-10.769-26.6-10.769h-550.2c-9.551,0-18.592,3.834-25.46,10.796
			c-6.891,6.985-10.686,16.226-10.686,26.019v808.291c0,20.298,17.797,36.812,39.672,36.812h544.531
			c10.58,0,20.467-3.807,27.828-10.721c7.605-7.139,11.793-16.996,11.793-27.758V76.576
			C711.412,66.703,707.549,57.453,700.533,50.531z M708.612,883.2c0,21.008-16.813,35.679-36.818,35.679H127.261
			c-20.339,0-36.871-15.229-36.871-34.012V76.576c0-18.785,15.229-34.014,33.345-34.014h550.199c19.451,0,34.68,15.229,34.68,34.014
			V883.2H708.612z"/>
		<path fill="#FFFFFF" d="M668.518,118.545H130.81c-1.934,0-3.501,1.566-3.501,3.5v716.942c0,1.935,1.567,3.5,3.501,3.5h537.708
			c1.932,0,3.5-1.565,3.5-3.5V122.045C672.018,120.112,670.449,118.545,668.518,118.545z M668.518,838.988H130.81V122.045h537.708
			V838.988z"/>
		<path fill="#FFFFFF" d="M399.29,87.956c2.9,0,5.25-2.352,5.25-5.251c0-2.9-2.35-5.251-5.25-5.251
			c-2.899,0-5.252,2.351-5.252,5.251C394.038,85.605,396.39,87.956,399.29,87.956z M399.29,79.554c1.736,0,3.15,1.414,3.15,3.15
			s-1.414,3.15-3.15,3.15c-1.738,0-3.151-1.414-3.151-3.15S397.552,79.554,399.29,79.554z"/>
		<ellipse fill="#FFFFFF" cx="384.236" cy="82.836" rx="2.813" ry="2.826"/>
		<path fill="#FFFFFF" d="M399.254,860.121c-11.602,0-21.006,9.404-21.006,21.005c0,0.169,0.01,0.336,0.014,0.503
			c0.269,11.367,9.562,20.502,20.992,20.502c11.6,0,21.004-9.404,21.004-21.005S410.854,860.121,399.254,860.121z M399.254,899.329
			c-4.785,0-9.304-1.844-12.725-5.189c-3.413-3.339-5.354-7.807-5.469-12.578l-0.006-0.191c-0.002-0.083-0.006-0.162-0.006-0.243
			c0-10.036,8.166-18.203,18.204-18.203c10.037,0,18.203,8.167,18.203,18.203C417.457,891.163,409.291,899.329,399.254,899.329z"/>
	</g>
</g>
</svg>
