<?xml version="1.0" encoding="utf-8"?>
<!-- Generator: Adobe Illustrator 16.0.3, SVG Export Plug-In . SVG Version: 6.00 Build 0)  -->
<!DOCTYPE svg PUBLIC "-//W3C//DTD SVG 1.1//EN" "http://www.w3.org/Graphics/SVG/1.1/DTD/svg11.dtd">
<svg version="1.1" id="圖層_1" xmlns="http://www.w3.org/2000/svg" xmlns:xlink="http://www.w3.org/1999/xlink" x="0px" y="0px"
	 width="800px" height="479px" viewBox="0 0 800 479" enable-background="new 0 0 800 479" xml:space="preserve">
<g>
	<path fill="#FFFFFF" d="M400.635,37.458c1.788,0,3.237-1.449,3.237-3.235c0-1.788-1.449-3.236-3.237-3.236
		c-1.787,0-3.235,1.449-3.235,3.236C397.399,36.009,398.848,37.458,400.635,37.458z M400.635,32.604
		c0.893,0,1.618,0.726,1.618,1.618s-0.726,1.617-1.618,1.617s-1.618-0.726-1.618-1.617C399.017,33.33,399.742,32.604,400.635,32.604
		z"/>
	<path fill="#FFFFFF" d="M783.756,436h-71.08c0.82-2,0.803-4.45,0.803-7.104V41.335C713.48,28.472,703.487,18,690.624,18H110.438
		C97.575,18,87.48,28.472,87.48,41.335v387.561c0,2.653,0.084,5.104,0.903,7.104H17.191c-0.668,0-1.711,1.015-1.711,1.677v11.915
		c0,0.372,0.25,1.359,1.137,2.005c0.21,0.158,0.561,0.32,0.801,0.485l0.063-0.074C22.779,455.652,36.129,461,51.03,461h698.898
		c14.9,0,28.188-5.348,33.487-8.992l0.001,0.038c0.304-0.209,0.344-0.403,0.611-0.612c0.7-0.543,0.45-1.361,0.45-1.676V437.69
		C784.48,437.044,784.408,436,783.756,436z M88.48,41.335C88.48,29.365,98.466,20,110.438,20h580.186
		c11.971,0,21.856,9.365,21.856,21.335v387.561c0,2.667-0.64,5.104-1.523,7.104H90.105c-0.884-2-1.625-4.438-1.625-7.104V41.335z
		 M453.184,438c-0.475,3-3.036,7-7.569,7h-90.266c-4.532,0-7.095-4-7.569-7H453.184z M783.48,449.758
		c0,0.152-0.066,0.563-0.136,0.613c-0.184,0.145-0.438-0.371-0.641,0.629h-0.086c-0.568,0-1.579,1-2.662,1h0.114
		c-6.146,4-17.532,8-30.143,8H51.03c-11.037,0-21.136-3.265-27.604-6.269c-0.306-0.134-0.636-0.522-0.976-0.696
		C21.9,452.764,21.375,452,20.89,452h0.082c-1.082,0-2.093-1-2.662-1h-0.056c-0.146,0-0.345-0.401-0.483-0.507
		c-0.153-0.11-0.291-0.448-0.291-0.901V438h328.661c0.47,3,3.68,9,9.208,9h90.266c5.527,0,8.736-6,9.208-9H783.48V449.758z"/>
	<path fill="#FFFFFF" d="M694.48,45.023c0-1.118-0.905-2.023-2.022-2.023H108.501c-1.117,0-2.021,0.906-2.021,2.023v364.953
		c0,1.117,0.904,2.022,2.021,2.022h583.955c1.117,0,2.021-0.905,2.021-2.022V45.023H694.48z M108.48,44.954L108.359,45H692.48v365
		H108.359l0.121,0.284V44.954z"/>
</g>
</svg>
