<?xml version="1.0" encoding="utf-8"?>
<!-- Generator: Adobe Illustrator 16.0.3, SVG Export Plug-In . SVG Version: 6.00 Build 0)  -->
<!DOCTYPE svg PUBLIC "-//W3C//DTD SVG 1.1//EN" "http://www.w3.org/Graphics/SVG/1.1/DTD/svg11.dtd">
<svg version="1.1" id="圖層_1" xmlns="http://www.w3.org/2000/svg" xmlns:xlink="http://www.w3.org/1999/xlink" x="0px" y="0px"
	 width="552px" height="1002.881px" viewBox="0 0 552 1002.881" enable-background="new 0 0 552 1002.881" xml:space="preserve">
<g>
	<path fill="#FFFFFF" d="M213.929,100.52c5.657,0,10.26-4.597,10.26-10.249c0-5.654-4.604-10.251-10.26-10.251
		c-5.648,0-10.242,4.598-10.242,10.251C203.687,95.923,208.281,100.52,213.929,100.52z M213.929,83.099
		c3.96,0,7.182,3.217,7.182,7.172c0,3.953-3.221,7.172-7.182,7.172c-3.95,0-7.164-3.219-7.164-7.172
		C206.765,86.316,209.979,83.099,213.929,83.099z"/>
	<path fill="#FFFFFF" d="M245.46,93.839l1.757,0.402l1.7-0.241h53.709l1.645,0.241l1.76-0.583l1.312-1.459l0.481-1.971l-0.48-1.991
		l-1.313-1.552l-1.764-0.744l-1.696-0.118l-53.767,0.006l-1.584,0.117l-1.76,0.751l-1.314,1.563l-0.481,2.013l0.481,2.017
		L245.46,93.839z M246.97,89.682l0.372-0.442l0.616-0.261l0.959-0.073l53.542-0.004l1.075,0.08l0.613,0.259l0.37,0.442l0.142,0.591
		l-0.141,0.588l-0.371,0.439l-0.617,0.267l-1.015,0.073l-53.487,0.004l-1.069-0.078l-0.618-0.267l-0.372-0.439l-0.139-0.588
		L246.97,89.682z"/>
	<path fill="#FFFFFF" d="M73,859h406V143H73V859z M79,148h394v706H79V148z"/>
	<path fill="#FFFFFF" d="M509.976,212.403c-1.125,0-1.976,0.268-2.976,0.732V96.873C507,62.948,478.685,35,444.76,35H106.425
		C72.5,35,45,62.948,45,96.873v48.574c0-0.003-0.296-0.012-0.376-0.012c-2.01,0-9.624,1.54-9.624,6.161v25.496
		c0,4.62,7.614,6.16,9.624,6.16c0.08,0,0.376-0.009,0.376-0.012v32.202c0-0.003-0.296-0.012-0.376-0.012
		c-2.01,0-9.624,1.541-9.624,6.159v43.636c0,4.62,7.614,6.16,9.624,6.16c0.08,0,0.376-0.009,0.376-0.012v21.054
		c0-0.003-0.296-0.012-0.376-0.012c-2.01,0-9.624,1.541-9.624,6.16v43.634c0,4.619,7.614,6.159,9.624,6.159
		c0.08,0,0.376-0.009,0.376-0.012V905.01C45,938.936,72.5,967,106.425,967h3.671l0.717-0.723c3.867-2.652,8.394-4.173,13.091-4.173
		c4.696,0,9.223,1.577,13.091,4.23l0.715,0.665h103.618l0.816-1.148c2.983-2.9,6.89-4.852,10.998-4.852h45
		c4.108,0,8.014,1.951,10.998,4.852l0.816,1.148H444.76c33.925,0,62.24-28.064,62.24-61.99V270.661c1,0.464,1.851,0.731,2.976,0.731
		c3.963,0,7.024-3.224,7.024-7.187V219.59C517,215.627,513.938,212.403,509.976,212.403z M45,342.705
		c0,0.037-0.091,0.062-0.176,0.062c-0.896,0-2.824-0.657-3.824-1.233v-42.286c1-0.576,2.928-1.232,3.824-1.232
		c0.085,0,0.176,0.024,0.176,0.061V342.705z M45,265.72c0,0.038-0.091,0.063-0.176,0.063c-0.896,0-2.824-0.656-3.824-1.233v-42.288
		c1-0.576,2.928-1.232,3.824-1.232c0.085,0,0.176,0.024,0.176,0.062V265.72z M45,177.589c0,0.036-0.091,0.062-0.176,0.062
		c-0.896,0-2.824-0.657-3.824-1.232v-24.15c1-0.576,2.928-1.233,3.824-1.233c0.085,0,0.176,0.024,0.176,0.062V177.589z M501,905.01
		c0,30.837-25.403,55.99-56.24,55.99H312.186c-3.913-3-8.855-5-14.042-5h-45c-5.187,0-10.13,2-14.042,5h-99.677
		c-4.638-3-9.983-4.547-15.52-4.547c-5.536,0-10.882,1.547-15.52,4.547h-1.959C75.588,961,51,935.847,51,905.01V96.873
		C51,66.036,75.588,41,106.425,41H444.76C475.597,41,501,66.036,501,96.873V905.01z M511,264.205c0,0.859-0.641,1.585-1.5,1.585
		s-1.5-0.727-1.5-1.585V219.59c0-0.86,0.641-1.586,1.5-1.586s1.5,0.727,1.5,1.586V264.205z"/>
	<path fill="#FFFFFF" d="M275.363,875.771c-17.981,0-32.61,14.629-32.61,32.61c0,17.979,14.629,32.607,32.61,32.607
		c17.982,0,32.61-14.628,32.61-32.607C307.974,890.399,293.346,875.771,275.363,875.771z M275.363,935.388
		c-14.893,0-27.009-12.115-27.009-27.007c0-14.894,12.117-27.01,27.009-27.01s27.01,12.116,27.01,27.01
		C302.373,923.272,290.256,935.388,275.363,935.388z"/>
</g>
</svg>
